<svg xmlns="http://www.w3.org/2000/svg" width="34" height="31" viewBox="0 0 34 31" fill="none">
  <path d="M16.9699 11.2587V16.2626M16.9699 21.2665H16.9841M15.0118 4.86843L3.38062 22.6405C2.73548 23.6263 2.41292 24.1191 2.46059 24.5237C2.50217 24.8765 2.71114 25.1971 3.03549 25.4057C3.40735 25.6449 4.05115 25.6449 5.33876 25.6449H28.6011C29.8887 25.6449 30.5325 25.6449 30.9043 25.4057C31.2287 25.1971 31.4376 24.8765 31.4792 24.5237C31.5269 24.1191 31.2043 23.6263 30.5592 22.6405L18.928 4.86843C18.2852 3.88621 17.9638 3.39511 17.5445 3.23016C17.1787 3.08628 16.7611 3.08628 16.3953 3.23016C15.976 3.39511 15.6546 3.88622 15.0118 4.86843Z" stroke="url(#paint0_linear_504_2409)" stroke-width="1.33333" stroke-linecap="round" stroke-linejoin="round"/>
  <defs>
    <linearGradient id="paint0_linear_504_2409" x1="-6.69897" y1="14.3836" x2="31.4838" y2="14.3836" gradientUnits="userSpaceOnUse">
      <stop stop-color="#9E1919"/>
      <stop offset="1" stop-color="#FF6550"/>
    </linearGradient>
  </defs>
</svg>
