<svg width="22" height="20" viewBox="0 0 22 20" fill="none" xmlns="http://www.w3.org/2000/svg">
<rect x="0.4" y="5.4" width="20.6516" height="11.075" rx="0.6" stroke="#D7D7D8" stroke-width="0.8"/>
<mask id="path-2-inside-1_701_1926" fill="white">
<path d="M2.86023 16.875H8.58066V18.75C8.58066 19.0261 8.3568 19.25 8.08066 19.25H3.36023C3.08409 19.25 2.86023 19.0261 2.86023 18.75V16.875Z"/>
</mask>
<path d="M2.86023 16.875H8.58066H2.86023ZM9.08066 18.75C9.08066 19.3023 8.63294 19.75 8.08066 19.75H3.36023C2.80794 19.75 2.36023 19.3023 2.36023 18.75H3.36023H8.08066H9.08066ZM3.36023 19.75C2.80794 19.75 2.36023 19.3023 2.36023 18.75V16.875H3.36023V18.75V19.75ZM9.08066 16.875V18.75C9.08066 19.3023 8.63294 19.75 8.08066 19.75V18.75V16.875H9.08066Z" fill="#D7D7D8" mask="url(#path-2-inside-1_701_1926)"/>
<mask id="path-4-inside-2_701_1926" fill="white">
<path d="M12.871 16.875H18.5914V18.75C18.5914 19.0261 18.3675 19.25 18.0914 19.25H13.371C13.0948 19.25 12.871 19.0261 12.871 18.75V16.875Z"/>
</mask>
<path d="M12.871 16.875H18.5914H12.871ZM19.0914 18.75C19.0914 19.3023 18.6437 19.75 18.0914 19.75H13.371C12.8187 19.75 12.371 19.3023 12.371 18.75H13.371H18.0914H19.0914ZM13.371 19.75C12.8187 19.75 12.371 19.3023 12.371 18.75V16.875H13.371V18.75V19.75ZM19.0914 16.875V18.75C19.0914 19.3023 18.6437 19.75 18.0914 19.75V18.75V16.875H19.0914Z" fill="#D7D7D8" mask="url(#path-4-inside-2_701_1926)"/>
<mask id="path-6-inside-3_701_1926" fill="white">
<rect x="5.72043" y="12.125" width="2.86021" height="2.375" rx="0.3"/>
</mask>
<rect x="5.72043" y="12.125" width="2.86021" height="2.375" rx="0.3" stroke="#D7D7D8" mask="url(#path-6-inside-3_701_1926)"/>
<mask id="path-7-inside-4_701_1926" fill="white">
<rect x="10.0107" y="12.125" width="2.86021" height="2.375" rx="0.3"/>
</mask>
<rect x="10.0107" y="12.125" width="2.86021" height="2.375" rx="0.3" stroke="#D7D7D8" mask="url(#path-7-inside-4_701_1926)"/>
<mask id="path-8-inside-5_701_1926" fill="white">
<rect x="5.72043" y="7.375" width="7.15054" height="3.5625" rx="0.3"/>
</mask>
<rect x="5.72043" y="7.375" width="7.15054" height="3.5625" rx="0.3" stroke="#D7D7D8" mask="url(#path-8-inside-5_701_1926)"/>
<path d="M2.86023 8.5625V12.125" stroke="#D7D7D8" stroke-width="0.5" stroke-linecap="round"/>
<path d="M4.29031 8.5625V12.125" stroke="#D7D7D8" stroke-width="0.5" stroke-linecap="round"/>
<mask id="path-11-inside-6_701_1926" fill="white">
<rect x="14.3011" y="12.125" width="2.86021" height="2.375" rx="0.3"/>
</mask>
<rect x="14.3011" y="12.125" width="2.86021" height="2.375" rx="0.3" stroke="#D7D7D8" mask="url(#path-11-inside-6_701_1926)"/>
<mask id="path-12-inside-7_701_1926" fill="white">
<path d="M18.5914 9.15625C18.5914 10.14 17.631 10.9375 16.4462 10.9375C15.2615 10.9375 14.3011 10.14 14.3011 9.15625C14.3011 8.17249 15.2615 7.375 16.4462 7.375C17.631 7.375 18.5914 8.17249 18.5914 9.15625ZM14.98 9.15625C14.98 9.82867 15.6364 10.3738 16.4462 10.3738C17.256 10.3738 17.9125 9.82867 17.9125 9.15625C17.9125 8.48383 17.256 7.93872 16.4462 7.93872C15.6364 7.93872 14.98 8.48383 14.98 9.15625Z"/>
</mask>
<path d="M18.5914 9.15625C18.5914 10.14 17.631 10.9375 16.4462 10.9375C15.2615 10.9375 14.3011 10.14 14.3011 9.15625C14.3011 8.17249 15.2615 7.375 16.4462 7.375C17.631 7.375 18.5914 8.17249 18.5914 9.15625ZM14.98 9.15625C14.98 9.82867 15.6364 10.3738 16.4462 10.3738C17.256 10.3738 17.9125 9.82867 17.9125 9.15625C17.9125 8.48383 17.256 7.93872 16.4462 7.93872C15.6364 7.93872 14.98 8.48383 14.98 9.15625Z" fill="black" stroke="#D7D7D8" stroke-width="2" mask="url(#path-12-inside-7_701_1926)"/>
<path d="M15.0161 9.75L16.4462 9.15625" stroke="#D7D7D8" stroke-width="0.5" stroke-linecap="round"/>
<path d="M14.3011 0.45V4.8C14.3011 4.91046 14.3906 5 14.5011 5H17.6764C17.7868 5 17.8764 4.91046 17.8764 4.8V2.825C17.8764 2.71454 17.9659 2.625 18.0764 2.625H21.2516C21.3621 2.625 21.4516 2.53546 21.4516 2.425V0.45C21.4516 0.339543 21.3621 0.25 21.2516 0.25H14.5011C14.3906 0.25 14.3011 0.339543 14.3011 0.45Z" stroke="#D7D7D8" stroke-width="0.5" stroke-linecap="round"/>
<mask id="path-15-inside-8_701_1926" fill="white">
<path d="M21.4516 1.4375C21.4516 2.09334 21.1315 2.625 20.7366 2.625C20.3417 2.625 20.0215 2.09334 20.0215 1.4375C20.0215 0.781662 20.3417 0.25 20.7366 0.25C21.1315 0.25 21.4516 0.781662 21.4516 1.4375ZM20.3622 1.4375C20.3622 1.78088 20.5298 2.05924 20.7366 2.05924C20.9433 2.05924 21.1109 1.78088 21.1109 1.4375C21.1109 1.09412 20.9433 0.815762 20.7366 0.815762C20.5298 0.815762 20.3622 1.09412 20.3622 1.4375Z"/>
</mask>
<path d="M21.4516 1.4375C21.4516 2.09334 21.1315 2.625 20.7366 2.625C20.3417 2.625 20.0215 2.09334 20.0215 1.4375C20.0215 0.781662 20.3417 0.25 20.7366 0.25C21.1315 0.25 21.4516 0.781662 21.4516 1.4375ZM20.3622 1.4375C20.3622 1.78088 20.5298 2.05924 20.7366 2.05924C20.9433 2.05924 21.1109 1.78088 21.1109 1.4375C21.1109 1.09412 20.9433 0.815762 20.7366 0.815762C20.5298 0.815762 20.3622 1.09412 20.3622 1.4375Z" stroke="#D7D7D8" mask="url(#path-15-inside-8_701_1926)"/>
</svg>
