<svg width="34" height="31" viewBox="0 0 34 31" fill="none" xmlns="http://www.w3.org/2000/svg">
<path d="M16.9693 11.2587V16.2626M16.9693 21.2665H16.9835M15.0112 4.8684L3.38005 22.6405C2.73491 23.6262 2.41234 24.1191 2.46002 24.5236C2.5016 24.8765 2.71057 25.1971 3.03491 25.4057C3.40677 25.6449 4.05058 25.6449 5.33819 25.6449H28.6005C29.8881 25.6449 30.5319 25.6449 30.9038 25.4057C31.2281 25.1971 31.4371 24.8765 31.4787 24.5236C31.5263 24.1191 31.2038 23.6262 30.5586 22.6405L18.9275 4.8684C18.2846 3.88618 17.9632 3.39508 17.5439 3.23013C17.1781 3.08625 16.7605 3.08625 16.3948 3.23013C15.9754 3.39508 15.654 3.88619 15.0112 4.8684Z" stroke="url(#paint0_linear_504_2419)" stroke-width="1.33333" stroke-linecap="round" stroke-linejoin="round"/>
<defs>
<linearGradient id="paint0_linear_504_2419" x1="-6.69955" y1="14.3836" x2="31.4833" y2="14.3836" gradientUnits="userSpaceOnUse">
<stop stop-color="#9E8919"/>
<stop offset="1" stop-color="#FBFF50"/>
</linearGradient>
</defs>
</svg>
