<svg width="27" height="22" viewBox="0 0 27 22" fill="none" xmlns="http://www.w3.org/2000/svg">
<path d="M3.28011 0.173912C2.76249 0.610449 1.67738 2.27553 1.166 3.42299C-0.873273 7.98792 -0.199752 13.3386 2.89346 17.2238C3.34247 17.7788 3.54827 17.8973 3.91621 17.7851C4.41511 17.6354 4.54608 17.1115 4.20932 16.6376C4.09706 16.4817 3.84137 16.1387 3.64805 15.8705C2.63777 14.4736 2.00166 13.0143 1.62125 11.237C1.45911 10.5074 1.44663 10.3452 1.44663 8.92336C1.44663 7.69482 1.47158 7.28323 1.55889 6.83422C1.97672 4.75755 2.70637 3.16107 3.99728 1.47729C4.34651 1.02828 4.3777 0.953442 4.3777 0.679049C4.3777 0.410889 4.35275 0.348526 4.1719 0.186384C3.8975 -0.0568295 3.56074 -0.0630646 3.28011 0.173912Z" fill="#C37C5A"/>
<path d="M22.4823 0.186483C22.3014 0.348625 22.2765 0.410988 22.2765 0.679146C22.2765 0.959778 22.3076 1.02838 22.6569 1.47739C24.0788 3.31708 24.9207 5.33138 25.1763 7.49536C25.3011 8.53058 25.2262 10.3204 25.0267 11.2745C24.6587 13.002 24.0102 14.48 23.0061 15.8706C22.8128 16.1388 22.5571 16.4818 22.4511 16.6377C22.1018 17.1179 22.239 17.6355 22.7442 17.7852C23.1246 17.9037 23.3366 17.7727 23.8605 17.0929C27.5274 12.3472 27.596 5.74921 24.0164 0.941069C23.4551 0.186483 23.2493 0.0056324 22.925 0.0056324C22.7442 0.0056324 22.6319 0.0492859 22.4823 0.186483Z" fill="#C37C5A"/>
<path d="M12.4205 1.38357C11.4227 1.50206 10.3002 1.90118 9.40841 2.44997C8.66629 2.91145 7.64977 3.91549 7.1571 4.68254C5.82253 6.75921 5.61673 9.28489 6.59583 11.636C7.25065 13.2137 8.94068 14.8663 10.4935 15.4588L10.9425 15.6272L11.1172 16.5002C11.2793 17.3109 11.2918 17.498 11.3105 19.0883C11.323 20.0299 11.3479 20.8656 11.3604 20.9467C11.3791 21.0215 11.4851 21.14 11.5974 21.2086C11.7782 21.3208 11.9154 21.3333 13.3248 21.3333C14.7342 21.3333 14.8714 21.3208 15.0523 21.2086C15.1645 21.14 15.2705 21.0215 15.2892 20.9467C15.3017 20.8656 15.3267 20.0299 15.3391 19.0883C15.3578 17.498 15.3703 17.3109 15.5325 16.5002L15.7071 15.6272L16.1561 15.4588C17.7089 14.8663 19.399 13.2137 20.0538 11.636C21.0329 9.28489 20.8271 6.75298 19.4925 4.68254C18.7629 3.55378 17.4408 2.42502 16.2871 1.94483C15.0148 1.41475 13.7302 1.22766 12.4205 1.38357ZM14.3538 2.81791C15.1084 2.94263 16.0501 3.32928 16.6862 3.76582C17.0915 4.04021 17.7775 4.71373 18.1018 5.14403C18.4822 5.64293 18.8315 6.36009 19.0435 7.03361C19.1994 7.53874 19.2119 7.66347 19.2119 8.67374C19.2119 9.69025 19.1994 9.8025 19.0373 10.3263C18.5571 11.8916 17.4345 13.2574 16.0438 13.9558C15.1084 14.4298 14.3538 14.6044 13.2936 14.6044C10.4873 14.6044 8.08631 12.6275 7.49386 9.83992C7.37537 9.29113 7.37537 8.05635 7.49386 7.50756C7.75579 6.26031 8.33576 5.23133 9.26497 4.35826C9.77635 3.87183 10.0882 3.64733 10.6744 3.36046C11.8343 2.78049 13.0629 2.59964 14.3538 2.81791ZM14.1979 16.0387C14.1979 16.0575 14.1418 16.3755 14.0732 16.7497C13.9734 17.286 13.9484 17.6976 13.9484 18.6954V19.9613H13.3248H12.7012V18.6954C12.7012 17.6976 12.6762 17.286 12.5765 16.7497C12.5079 16.3755 12.4517 16.0575 12.4517 16.0387C12.4517 16.02 12.8446 16.0013 13.3248 16.0013C13.805 16.0013 14.1979 16.02 14.1979 16.0387Z" fill="#C37C5A"/>
<path d="M12.5463 3.3729C10.3886 3.70966 8.71723 5.21883 8.14349 7.33292C8.03123 7.73204 8.00629 8.00643 8.00629 8.67371C8.00629 9.34099 8.03123 9.61538 8.14349 10.0145C8.6611 11.929 10.0705 13.3447 11.985 13.856C12.3779 13.962 12.6586 13.9932 13.3259 13.9932C13.9931 13.9932 14.2738 13.962 14.6667 13.856C16.5812 13.3447 17.9968 11.9228 18.5082 10.0145C18.7016 9.30357 18.7016 8.03761 18.5082 7.33292C17.9906 5.41215 16.55 3.97782 14.6667 3.49763C14.0867 3.34796 13.0826 3.29183 12.5463 3.3729ZM13.9183 4.77606C15.2404 4.91949 16.5001 5.95471 17.0489 7.33292C17.2111 7.73827 17.2235 7.83182 17.2235 8.67371C17.2235 9.54678 17.2173 9.59667 17.024 10.0769C16.656 10.9874 15.8827 11.823 15.0346 12.2284C14.4671 12.5028 13.9931 12.6088 13.3259 12.6088C12.6586 12.6088 12.1846 12.5028 11.6171 12.2284C10.769 11.823 9.99567 10.9874 9.62773 10.0769C9.4344 9.59667 9.42816 9.54678 9.42816 8.67371C9.42816 7.83182 9.44064 7.73827 9.60278 7.33292C10.0518 6.20416 10.8812 5.37473 11.9788 4.96314C12.3904 4.80724 13.1325 4.68251 13.4506 4.71993C13.5379 4.7324 13.7499 4.75735 13.9183 4.77606Z" fill="#C37C5A"/>
<path d="M12.4911 6.11713C10.7824 6.65969 10.0901 8.78001 11.1441 10.2518C11.9922 11.4366 13.7072 11.711 14.9046 10.8567C16.0895 10.0086 16.3639 8.29358 15.5095 7.09622C14.8484 6.17326 13.5887 5.7679 12.4911 6.11713ZM13.9878 7.58265C14.8173 8.06908 13.7009 6.60356 12.859 7.09622C11.7427 7.75103 11.5619 9.16042 12.223 8.0379C12.5971 7.4018 13.3455 7.20848 13.9878 7.58265Z" fill="#934621"/>
<path d="M5.16794 2.08221C4.75011 2.31918 3.66499 4.19006 3.26587 5.33753C2.48633 7.59505 2.46139 10.0272 3.1848 12.2535C3.56521 13.4135 4.33228 14.8291 4.96214 15.5463C5.32385 15.9641 5.89759 15.9017 6.1221 15.4278C6.27177 15.1097 6.20941 14.8915 5.78534 14.299C4.05788 11.8793 3.59016 8.78617 4.53184 5.98609C4.81871 5.13173 5.13676 4.4894 5.67308 3.69739C5.94124 3.30451 6.17199 2.9241 6.1907 2.84303C6.24059 2.65594 6.1221 2.29424 5.96619 2.15704C5.81028 2.01361 5.35503 1.97619 5.16794 2.08221Z" fill="#C37C5A"/>
<path d="M20.809 2.08195C20.6032 2.18173 20.4223 2.54343 20.4598 2.78041C20.4722 2.88642 20.6967 3.28554 20.9524 3.66595C21.5012 4.47043 21.8442 5.16265 22.1186 5.98583C23.0603 8.79214 22.5926 11.8791 20.8714 14.2925C20.6656 14.5794 20.4785 14.9037 20.4598 15.0159C20.3724 15.4649 20.8215 15.9015 21.2767 15.8204C21.5262 15.7705 21.7507 15.5273 22.262 14.754C23.3285 13.1326 23.9022 11.2991 23.9708 9.29104C24.0394 7.36404 23.6652 5.68026 22.7984 3.99647C22.3805 3.192 21.707 2.20667 21.4825 2.08818C21.3017 1.98217 21.0086 1.98217 20.809 2.08195Z" fill="#C37C5A"/>
</svg>
