<svg width="30" height="22" viewBox="0 0 30 22" fill="none" xmlns="http://www.w3.org/2000/svg">
<path d="M14.6431 0L12.9271 3.55556L14.6431 7.11111C16.7709 7.11111 18.6928 8 20.0999 9.45778L24.081 8.88889L24.9561 4.42667C22.3135 1.68889 18.6585 0 14.6431 0ZM4.33005 4.42667C1.68744 7.1645 6.10352e-05 10.9511 6.10352e-05 15.1111C6.10352e-05 15.6089 0.377519 16 0.858051 16H6.06319C6.54372 16 6.92118 15.6089 6.92118 15.1111C6.92118 12.9067 7.77917 10.9156 9.18627 9.45778L8.22515 4.90649L4.33005 4.42667ZM13.9376 9.27259C13.3393 10.1701 10.3531 14.7561 10.3531 16.8889C10.3531 19.3394 12.2769 21.3333 14.6431 21.3333C17.0092 21.3333 18.933 19.3394 18.933 16.8889C18.933 14.7561 15.9468 10.1701 15.3486 9.27259C15.0302 8.79165 14.256 8.79165 13.9376 9.27259Z" fill="#B87656"/>
<path d="M24.9568 4.42709L20.1006 9.4582C21.5077 10.916 22.3657 12.9071 22.3657 15.1115C22.3657 15.6094 22.7431 16.0004 23.2236 16.0004H28.4288C28.9093 16.0004 29.2868 15.6094 29.2868 15.1115C29.2868 10.9515 27.5995 7.16493 24.9568 4.42709ZM14.6438 0.000427246C10.6283 0.000427246 6.97338 1.68932 4.33072 4.42709L9.18694 9.4582C10.594 8.00043 12.5159 7.11154 14.6438 7.11154V0.000427246ZM14.6438 16.0004C14.1699 16.0004 13.7858 16.3984 13.7858 16.8893C13.7858 17.3802 14.1699 17.7782 14.6438 17.7782C15.1176 17.7782 15.5017 17.3802 15.5017 16.8893C15.5017 16.3984 15.1176 16.0004 14.6438 16.0004Z" fill="#934621"/>
</svg>
