<svg width="22" height="22" viewBox="0 0 22 22" fill="none" xmlns="http://www.w3.org/2000/svg">
<path d="M7.46412 4.13778C5.57279 6.42042 4.01479 8.30451 4.0003 8.34075C3.9858 8.36973 4.86988 8.39872 5.97135 8.39872H7.97138V9.88425V11.3698H10.9424H13.9135V9.88425V8.39872H15.9353H17.9643L14.4715 4.19575C12.5512 1.89136 10.9642 2.67029e-05 10.9424 2.67029e-05C10.9207 2.67029e-05 9.35546 1.86238 7.46412 4.13778Z" fill="#C37C5A"/>
<path d="M0.014493 17.3985L0.0362325 21.3333H10.9422H21.8482L21.8699 17.3985L21.8844 13.4709H10.9422H0L0.014493 17.3985ZM7.97115 17.384V18.3985H5.47111H2.97107V17.384V16.3695H5.47111H7.97115V17.384ZM14.9278 17.384V18.3985H13.9133H12.8988V17.384V16.3695H13.9133H14.9278V17.384ZM18.9134 17.384V18.3985H17.8989H16.8843V17.384V16.3695H17.8989H18.9134V17.384Z" fill="#934621"/>
</svg>
