<svg width="23" height="23" viewBox="0 0 23 23" fill="none" xmlns="http://www.w3.org/2000/svg">
<path d="M2.8231 7.34008C2.8231 5.75899 2.8231 4.96845 3.1308 4.36456C3.40146 3.83336 3.83334 3.40148 4.36454 3.13082C4.96843 2.82312 5.75897 2.82312 7.34005 2.82312H15.2447C16.8258 2.82312 17.6164 2.82312 18.2202 3.13082C18.7514 3.40148 19.1833 3.83336 19.454 4.36456C19.7617 4.96845 19.7617 5.75899 19.7617 7.34008V15.2448C19.7617 16.8258 19.7617 17.6164 19.454 18.2203C19.1833 18.7515 18.7514 19.1833 18.2202 19.454C17.6164 19.7617 16.8258 19.7617 15.2447 19.7617H7.34005C5.75897 19.7617 4.96843 19.7617 4.36454 19.454C3.83334 19.1833 3.40146 18.7515 3.1308 18.2203C2.8231 17.6164 2.8231 16.8258 2.8231 15.2448V7.34008Z" stroke="white" stroke-width="1.5" stroke-linecap="round" stroke-linejoin="round"/>
</svg>
