<svg xmlns="http://www.w3.org/2000/svg" width="31" height="24" viewBox="0 0 31 24" fill="none">
  <path d="M15.1806 8.80314V13.807M15.1806 18.8109H15.1947M13.2225 2.41284L1.59131 20.1849C0.946167 21.1707 0.623598 21.6635 0.671274 22.0681C0.712857 22.4209 0.921825 22.7415 1.24617 22.9501C1.61803 23.1893 2.26183 23.1893 3.54944 23.1893H26.8117C28.0994 23.1893 28.7432 23.1893 29.115 22.9501C29.4394 22.7415 29.6483 22.4209 29.6899 22.0681C29.7376 21.6635 29.415 21.1707 28.7699 20.1849L17.1387 2.41283C16.4959 1.43062 16.1745 0.93951 15.7552 0.774565C15.3894 0.630687 14.9718 0.630687 14.606 0.774565C14.1867 0.93951 13.8653 1.43062 13.2225 2.41284Z" stroke="url(#paint0_linear_846_537)" stroke-width="1.33333" stroke-linecap="round" stroke-linejoin="round"/>
  <defs>
    <linearGradient id="paint0_linear_846_537" x1="-8.48829" y1="11.928" x2="29.6945" y2="11.928" gradientUnits="userSpaceOnUse">
      <stop stop-color="#9E8919"/>
      <stop offset="1" stop-color="#FBFF50"/>
    </linearGradient>
  </defs>
</svg>
